<svg xmlns="http://www.w3.org/2000/svg" fill="none" viewBox="0 0 36 25" height="25" width="36">
<path fill="#DBE4F1" d="M9.818 0.499994C11.9087 0.499994 13.4113 1.05533 14.326 2.166C15.306 3.21133 15.796 4.58333 15.796 6.282V7.654C15.796 10.3327 15.012 13.3053 13.444 16.572C11.876 19.7733 9.68733 22.5827 6.878 25H0.312C2.272 22.9093 3.84 20.9493 5.016 19.12C6.25733 17.2253 7.13933 15.1347 7.662 12.848C6.35533 12.5213 5.37533 11.9007 4.722 10.986C4.134 10.0713 3.84 8.96066 3.84 7.654V6.282C3.84 4.58333 4.29733 3.21133 5.212 2.166C6.192 1.05533 7.72733 0.499994 9.818 0.499994ZM29.516 0.499994C31.6067 0.499994 33.1093 1.05533 34.024 2.166C35.004 3.21133 35.494 4.58333 35.494 6.282V7.654C35.494 10.3327 34.71 13.3053 33.142 16.572C31.574 19.7733 29.3853 22.5827 26.576 25H20.01C21.97 22.9093 23.538 20.9493 24.714 19.12C25.9553 17.2253 26.8373 15.1347 27.36 12.848C26.0533 12.5213 25.0733 11.9007 24.42 10.986C23.832 10.0713 23.538 8.96066 23.538 7.654V6.282C23.538 4.58333 23.9953 3.21133 24.91 2.166C25.89 1.05533 27.4253 0.499994 29.516 0.499994Z"></path>
</svg>
